<svg width="68" height="60" viewBox="0 0 68 60" fill="none" xmlns="http://www.w3.org/2000/svg">
<circle cx="47.6655" cy="20" r="20" fill="#F0A857" fill-opacity="0.631373"/>
<g clip-path="url(#clip0_3410_10361)">
<path d="M5.37311 57.0813H2.27385C1.50428 57.0813 0.880371 56.4574 0.880371 55.6878V52.5885C0.880371 51.8189 1.50428 51.195 2.27385 51.195H5.37322C6.14279 51.195 6.7667 51.8189 6.7667 52.5885V55.6878C6.76658 56.4574 6.14268 57.0813 5.37311 57.0813ZM53.2232 33.1645H50.1238C49.3543 33.1645 48.7304 32.5406 48.7304 31.7711V28.6717C48.7304 27.9021 49.3543 27.2782 50.1238 27.2782H53.2232C53.9928 27.2782 54.6167 27.9021 54.6167 28.6717V31.7711C54.6167 32.5407 53.9928 33.1645 53.2232 33.1645ZM51.7673 22.9427C51.7673 22.9427 44.412 16.1067 44.412 10.2732C44.412 6.2175 47.7117 2.91797 51.7673 2.91797C55.8229 2.91797 59.1226 6.2175 59.1226 10.2732C59.1226 16.1067 51.7673 22.9427 51.7673 22.9427Z" stroke="black" stroke-width="2" stroke-miterlimit="10" stroke-linecap="round" stroke-linejoin="round"/>
<path d="M51.7674 13.6432C53.6286 13.6432 55.1374 12.1345 55.1374 10.2733C55.1374 8.4121 53.6286 6.90332 51.7674 6.90332C49.9062 6.90332 48.3975 8.4121 48.3975 10.2733C48.3975 12.1345 49.9062 13.6432 51.7674 13.6432Z" stroke="black" stroke-width="2" stroke-miterlimit="10" stroke-linecap="round" stroke-linejoin="round"/>
<path d="M3.82373 51.1949C3.82373 51.1949 5.11045 37.025 17.985 27.9305C30.8475 18.8443 44.6398 23.961 44.6398 23.961" stroke="black" stroke-width="2" stroke-miterlimit="10" stroke-linecap="round" stroke-linejoin="round"/>
<path d="M42.9838 20.5496L44.8945 24.0837L41.3606 25.9944M52.4534 33.165L42.0881 44.7912C41.7846 45.131 41.351 45.3244 40.8963 45.3244H34.2002L24.258 55.2677C23.9582 55.567 23.552 55.7351 23.1284 55.7353H6.76664V52.542M6.70488 11.7743L5.42578 6.95508H7.61449L11.8591 10.4235" stroke="black" stroke-width="2" stroke-miterlimit="10" stroke-linecap="round" stroke-linejoin="round"/>
<path d="M17.2852 15.1784H13.6414C12.2972 15.1784 8.40112 15.1784 6.32186 13.9154L5.49381 13.4783C5.10955 13.2755 5.09584 12.73 5.46955 12.5081L7.21448 11.4722C8.37046 10.786 9.68991 10.4239 11.0342 10.4238H28.2147C29.1168 10.4238 30.0084 10.6169 30.8296 10.9901C31.6509 11.3633 32.3827 11.9079 32.976 12.5873L34.1271 13.1782C34.5166 13.3782 34.6577 13.8686 34.4272 14.2409C34.1469 14.6938 33.5783 15.1784 32.4282 15.1784H25.3993" stroke="black" stroke-width="2" stroke-miterlimit="10" stroke-linecap="round" stroke-linejoin="round"/>
<path d="M25.3993 15.1782L24.7224 14.2111C24.6303 14.0796 24.5079 13.9722 24.3655 13.898C24.2231 13.8239 24.0649 13.7851 23.9043 13.7852H19.2556C18.9984 13.7852 18.7442 13.8416 18.5112 13.9504C18.2781 14.0593 18.0717 14.2179 17.9065 14.4152L13.7827 19.4791H17.2306C17.5888 19.479 17.9411 19.3878 18.2542 19.214L25.3993 15.1782Z" stroke="black" stroke-width="2" stroke-miterlimit="10" stroke-linecap="round" stroke-linejoin="round"/>
</g>
<defs>
<clipPath id="clip0_3410_10361">
<rect width="60" height="60" fill="white" transform="translate(0.00146484)"/>
</clipPath>
</defs>
</svg>
