<svg width="68" height="60" viewBox="0 0 68 60" fill="none" xmlns="http://www.w3.org/2000/svg">
<circle cx="47.6655" cy="20" r="20" fill="#F0A857" fill-opacity="0.631373"/>
<g clip-path="url(#clip0_3410_10404)">
<mask id="mask0_3410_10404" style="mask-type:luminance" maskUnits="userSpaceOnUse" x="0" y="0" width="61" height="60">
<path d="M0.00146484 0.000175476H60.0013V60H0.00146484V0.000175476Z" fill="white"/>
</mask>
<g mask="url(#mask0_3410_10404)">
<path d="M0.944702 28.1637L6.95418 12.9309C6.99828 12.819 7.064 12.7169 7.14756 12.6305C7.23112 12.544 7.3309 12.4749 7.44119 12.427C7.55148 12.3791 7.67013 12.3534 7.79035 12.3513C7.91057 12.3493 8.03002 12.371 8.14187 12.4151L12.9237 14.3016C13.0355 14.3457 13.1376 14.4114 13.2241 14.495C13.3105 14.5785 13.3797 14.6783 13.4276 14.7886C13.4755 14.8989 13.5012 15.0175 13.5032 15.1378C13.5052 15.258 13.4836 15.3774 13.4394 15.4893L7.42996 30.7222C7.38584 30.8341 7.32012 30.9361 7.23655 31.0226C7.15298 31.109 7.0532 31.1782 6.94291 31.226C6.83262 31.2739 6.71398 31.2996 6.59376 31.3016C6.47354 31.3037 6.3541 31.282 6.24226 31.2378L1.46044 29.3515C1.23456 29.2623 1.05334 29.0871 0.956628 28.8644C0.859913 28.6416 0.855623 28.3896 0.944702 28.1637Z" stroke="black" stroke-width="2" stroke-miterlimit="10" stroke-linecap="round" stroke-linejoin="round"/>
<path d="M43.0585 36.6846L39.9302 34.2741" stroke="black" stroke-width="2" stroke-miterlimit="10" stroke-linecap="round" stroke-linejoin="round"/>
<path d="M38.8724 40.0527L36.0913 37.9116" stroke="black" stroke-width="2" stroke-miterlimit="10" stroke-linecap="round" stroke-linejoin="round"/>
<path d="M34.2715 43.1211L32.2896 41.5872" stroke="black" stroke-width="2" stroke-miterlimit="10" stroke-linecap="round" stroke-linejoin="round"/>
<path d="M13.378 38.0824C12.3993 37.2525 12.2786 35.7864 13.1085 34.8076L15.281 32.2575C16.1109 31.2788 17.5772 31.1581 18.5558 31.988C19.5346 32.8178 19.6553 34.2839 18.8254 35.2627L16.6528 37.8129C15.8229 38.7916 14.3568 38.9123 13.378 38.0824Z" stroke="black" stroke-width="2" stroke-miterlimit="10" stroke-linecap="round" stroke-linejoin="round"/>
<path d="M16.9219 41.0873C15.9432 40.2574 15.8226 38.7913 16.6524 37.8125L18.825 35.2624C19.6548 34.2837 21.1211 34.163 22.0998 34.9929C23.0786 35.8227 23.1992 37.2889 22.3694 38.2676L20.1967 40.8178C19.3668 41.7965 17.9007 41.9172 16.9219 41.0873Z" stroke="black" stroke-width="2" stroke-miterlimit="10" stroke-linecap="round" stroke-linejoin="round"/>
<path d="M20.4664 44.0932C19.4877 43.2632 19.367 41.7971 20.1969 40.8184L22.3695 38.2681C23.1993 37.2895 24.6656 37.1688 25.6443 37.9987C26.6229 38.8285 26.7436 40.2947 25.9137 41.2734L23.7412 43.8236C22.9113 44.8024 21.4451 44.9231 20.4664 44.0932Z" stroke="black" stroke-width="2" stroke-miterlimit="10" stroke-linecap="round" stroke-linejoin="round"/>
<path d="M24.0108 47.0981C23.0321 46.2681 22.9114 44.802 23.7413 43.8233L25.9138 41.2731C26.7438 40.2944 28.21 40.1737 29.1886 41.0036C30.1674 41.8334 30.2881 43.2995 29.4582 44.2783L27.2856 46.8285C26.4557 47.8073 24.9896 47.928 24.0108 47.0981Z" stroke="black" stroke-width="2" stroke-miterlimit="10" stroke-linecap="round" stroke-linejoin="round"/>
<path d="M46.9564 33.0096L45.7878 32.1473L40.2918 28.0911L39.662 27.6483C34.4734 28.5297 30.9949 25.6867 29.579 24.2082C29.1625 23.7732 28.4751 23.7567 28.0271 24.1591C23.1618 28.5286 20.3444 27.4087 18.9765 26.1088C18.3187 25.4839 18.4319 24.4066 19.1956 23.9164C21.8106 22.2379 24.2526 20.1134 25.9974 18.4577L25.6867 18.3413C24.5823 17.9275 23.4216 17.6833 22.244 17.6171L19.0264 17.4364C18.605 17.4127 18.1823 17.4075 17.7611 17.4345C16.9998 17.4835 16.2374 17.3557 15.5336 17.0612L13.2041 16.0864L7.49072 30.5685L12.0075 33.4171L13.4369 34.4219L15.2809 32.2576C16.1107 31.2788 17.5768 31.1582 18.5555 31.988C19.5343 32.8179 19.655 34.284 18.8251 35.2628C19.655 34.284 21.1211 34.1633 22.0999 34.9933C23.0786 35.8232 23.1993 37.2893 22.3694 38.2681C23.1993 37.2893 24.6654 37.1686 25.6442 37.9985C26.6229 38.8283 26.7436 40.2946 25.9137 41.2732C26.7436 40.2946 28.2098 40.1739 29.1885 41.0037C30.1673 41.8336 30.288 43.2998 29.458 44.2785L28.5768 45.3129L30.5166 46.7446C31.5939 47.5396 33.112 47.4483 34.037 46.4804C34.9374 45.5385 34.991 44.1205 34.2713 43.1209L35.2439 43.8387C36.3532 44.6573 37.9243 44.5317 38.8361 43.4978C39.7193 42.4962 39.6969 41.0266 38.8722 40.0532L39.4186 40.4563C40.4763 41.2369 41.963 41.1661 42.8935 40.2376C43.8828 39.2506 43.9091 37.7042 43.0583 36.6849L43.8786 37.2904C45.0254 38.1366 46.6402 37.9193 47.5215 36.7917C48.4415 35.6145 48.1586 33.8969 46.9564 33.0096Z" stroke="black" stroke-width="2" stroke-miterlimit="10" stroke-linecap="round" stroke-linejoin="round"/>
<path d="M33.8085 16.6119L30.4724 16.0831C29.3438 15.9042 28.1969 16.2779 27.3935 17.0905C25.7382 18.7651 22.6142 21.7222 19.1958 23.9163C18.4321 24.4065 18.3188 25.4837 18.9767 26.1087C20.3445 27.4085 23.1619 28.5284 28.0273 24.1589C28.4753 23.7564 29.1626 23.773 29.5792 24.208C30.9975 25.689 34.4845 28.5392 39.6869 27.6445L47.5087 33.417L52.3974 30.2768L46.8147 16.1258L43.4216 17.3784C42.4805 17.7257 41.4661 17.8256 40.4754 17.6687L37.884 17.2579" stroke="black" stroke-width="2" stroke-miterlimit="10" stroke-linecap="round" stroke-linejoin="round"/>
<path d="M55.366 18.8045L53.0491 12.9318C52.96 12.7059 52.7848 12.5247 52.562 12.428C52.3393 12.3313 52.0873 12.327 51.8614 12.4161L47.0796 14.3025C46.8537 14.3917 46.6725 14.5669 46.5758 14.7896C46.4791 15.0123 46.4748 15.2643 46.5638 15.4902L52.5733 30.7232C52.6624 30.949 52.8376 31.1302 53.0604 31.227C53.2831 31.3237 53.5351 31.328 53.761 31.2389L58.5428 29.3524C58.6547 29.3083 58.7568 29.2426 58.8432 29.159C58.9297 29.0755 58.9988 28.9757 59.0467 28.8654C59.0946 28.7551 59.1203 28.6365 59.1223 28.5162C59.1244 28.396 59.1027 28.2766 59.0586 28.1647L56.873 22.6247" stroke="black" stroke-width="2" stroke-miterlimit="10" stroke-linecap="round" stroke-linejoin="round"/>
</g>
</g>
<defs>
<clipPath id="clip0_3410_10404">
<rect width="60" height="60" fill="white" transform="translate(0.00146484)"/>
</clipPath>
</defs>
</svg>
