<svg width="68" height="60" viewBox="0 0 68 60" fill="none" xmlns="http://www.w3.org/2000/svg">
<circle cx="48" cy="20" r="20" fill="#F0A857" fill-opacity="0.631373"/>
<path d="M58.7553 27.8652L54.4861 32.1344L50.2168 27.8652" stroke="black" stroke-width="2" stroke-miterlimit="10"/>
<path d="M47.7023 47.6541C42.8774 53.0017 35.8928 56.3629 28.1233 56.3629C13.5637 56.3627 1.76074 44.5599 1.76074 30.0002C1.76074 15.4406 13.5637 3.6377 28.1233 3.6377C42.6828 3.6377 54.4858 15.4407 54.4858 30.0002" stroke="black" stroke-width="2" stroke-miterlimit="10"/>
<path d="M34.4144 36.6387V44.0596M34.4144 40.4779C34.4144 38.0628 35.6161 36.7102 37.1695 36.7102C38.7228 36.7102 39.6559 37.823 39.5859 40.3492V44.0596M26.3791 44.0596V40.287C26.4883 37.8628 25.8145 36.7944 24.0718 36.7944C22.1937 36.7944 21.5559 38.2795 21.5557 39.7219L21.5537 40.7394M16.6567 36.6387V44.0596" stroke="black" stroke-width="2" stroke-miterlimit="10" stroke-linecap="square"/>
<path d="M16.6577 40.2216C16.6577 38.1076 17.7623 36.7559 19.3157 36.7559C20.754 36.7559 21.487 37.6535 21.5515 39.8383C21.5566 40.013 21.5575 40.1959 21.5542 40.3874V44.0593M30.4056 36.3994V44.0593" stroke="black" stroke-width="2" stroke-miterlimit="10" stroke-linecap="square"/>
<path d="M30.4027 33.616C30.6737 33.616 30.8934 33.3964 30.8934 33.1254C30.8934 32.8544 30.6737 32.6348 30.4027 32.6348C30.1318 32.6348 29.9121 32.8544 29.9121 33.1254C29.9121 33.3964 30.1318 33.616 30.4027 33.616Z" stroke="black" stroke-width="2" stroke-miterlimit="10" stroke-linecap="square"/>
<path d="M23.2851 16.5732C23.2851 16.5732 19.38 19.1384 18.9272 24.5853" stroke="black" stroke-width="2" stroke-miterlimit="10" stroke-linecap="square"/>
<path d="M22.4294 28.7163C24.3898 28.7163 25.979 27.1271 25.979 25.1668C25.979 23.2064 24.3898 21.6172 22.4294 21.6172C20.4691 21.6172 18.8799 23.2064 18.8799 25.1668C18.8799 27.1271 20.4691 28.7163 22.4294 28.7163Z" stroke="black" stroke-width="2" stroke-miterlimit="10" stroke-linecap="square"/>
<path d="M37.3667 25.1675C37.3667 27.1279 35.7776 28.7171 33.8171 28.7171C31.8568 28.7171 30.2676 27.1279 30.2676 25.1675V19.491C30.2676 17.5307 31.8567 15.9414 33.8171 15.9414C35.7776 15.9414 37.3667 17.5306 37.3667 19.491V25.1675Z" stroke="black" stroke-width="2" stroke-miterlimit="10" stroke-linecap="square"/>
</svg>
