<svg width="68" height="60" viewBox="0 0 68 60" fill="none" xmlns="http://www.w3.org/2000/svg">
<circle cx="48" cy="20" r="20" fill="#F0A857" fill-opacity="0.631373"/>
<path d="M30.0002 54.9602C29.8383 54.9602 29.679 54.9193 29.5372 54.8413C29.3953 54.7632 29.2756 54.6506 29.189 54.5138L26.636 50.4824C26.5092 50.282 26.4611 50.0417 26.501 49.808L27.7424 42.488C27.7849 42.237 27.9255 42.0131 28.1331 41.8657C28.3407 41.7183 28.5983 41.6594 28.8494 41.702C29.1004 41.7446 29.3242 41.8851 29.4716 42.0927C29.619 42.3003 29.6779 42.558 29.6354 42.809L28.4552 49.766L30.0002 52.2056L31.5452 49.766L30.365 42.8108C30.3224 42.5598 30.3813 42.3021 30.5287 42.0945C30.6761 41.8869 30.8999 41.7464 31.151 41.7038C31.402 41.6612 31.6596 41.7201 31.8672 41.8675C32.0748 42.0149 32.2154 42.2388 32.258 42.4898L33.4994 49.8098C33.5392 50.0435 33.4911 50.2838 33.3644 50.4842L30.8114 54.5156C30.7245 54.652 30.6046 54.7643 30.4628 54.842C30.321 54.9198 30.1619 54.9604 30.0002 54.9602Z" fill="black"/>
<path d="M31.3108 43.61H28.6888C28.5033 43.6101 28.3217 43.5564 28.166 43.4555C28.0103 43.3545 27.8873 43.2106 27.8116 43.0412L26.059 39.4514C25.9982 39.3375 25.961 39.2126 25.9496 39.084C25.9381 38.9554 25.9528 38.8258 25.9926 38.703C26.0324 38.5802 26.0966 38.4667 26.1813 38.3693C26.266 38.2718 26.3694 38.1925 26.4855 38.136C26.6016 38.0794 26.7278 38.0469 26.8568 38.0403C26.9857 38.0337 27.1146 38.0532 27.2359 38.0976C27.3571 38.142 27.4681 38.2104 27.5623 38.2986C27.6565 38.3869 27.7319 38.4933 27.784 38.6114L29.2888 41.6924H30.7108L32.215 38.612C32.2672 38.4939 32.3426 38.3875 32.4368 38.2992C32.531 38.211 32.642 38.1426 32.7632 38.0982C32.8845 38.0538 33.0134 38.0343 33.1423 38.0409C33.2713 38.0475 33.3975 38.08 33.5136 38.1366C33.6297 38.1931 33.7331 38.2724 33.8178 38.3699C33.9025 38.4673 33.9667 38.5808 34.0065 38.7036C34.0463 38.8264 34.061 38.956 34.0495 39.0846C34.0381 39.2132 34.0009 39.3381 33.94 39.452L32.1838 43.052C32.1069 43.2188 31.9838 43.36 31.8291 43.4589C31.6744 43.5578 31.4945 43.6102 31.3108 43.61Z" fill="black"/>
<path d="M54 54.9599H6.00004C5.74543 54.9599 5.50125 54.8587 5.32122 54.6787C5.14118 54.4987 5.04004 54.2545 5.04004 53.9999V46.1999C5.04004 41.9689 6.72078 37.9113 9.71251 34.9195C12.7042 31.9278 16.7619 30.2471 20.9928 30.2471C21.2474 30.2471 21.4916 30.3482 21.6717 30.5282C21.8517 30.7083 21.9528 30.9525 21.9528 31.2071C21.9528 31.4617 21.8517 31.7059 21.6717 31.8859C21.4916 32.0659 21.2474 32.1671 20.9928 32.1671C13.2552 32.1671 6.96004 38.4599 6.96004 46.1999V53.0399H53.04V46.1999C53.04 38.4599 46.7448 32.1671 39.0072 32.1671C38.7526 32.1671 38.5085 32.0659 38.3284 31.8859C38.1484 31.7059 38.0472 31.4617 38.0472 31.2071C38.0472 30.9525 38.1484 30.7083 38.3284 30.5282C38.5085 30.3482 38.7526 30.2471 39.0072 30.2471C43.2382 30.2471 47.2958 31.9278 50.2876 34.9195C53.2793 37.9113 54.96 41.9689 54.96 46.1999V53.9999C54.96 54.2545 54.8589 54.4987 54.6789 54.6787C54.4988 54.8587 54.2547 54.9599 54 54.9599Z" fill="black"/>
<path d="M24.6875 42.0682C24.4918 42.0683 24.3007 42.0087 24.1398 41.8971C23.9789 41.7856 23.856 41.6276 23.7875 41.4442L20.0927 31.5442C20.0149 31.3356 20.0121 31.1064 20.0847 30.896C20.1572 30.6855 20.3007 30.5068 20.4905 30.3904L23.4305 28.5862C23.4485 28.5742 23.4665 28.5634 23.4845 28.5526C23.6765 28.4426 23.9004 28.4018 24.1188 28.4371C24.3372 28.4724 24.5369 28.5816 24.6845 28.7464L29.9999 34.7218L35.3141 28.744C35.466 28.5732 35.6739 28.4621 35.9004 28.4309C36.1268 28.3996 36.357 28.4503 36.5495 28.5736L39.5093 30.3886C39.699 30.505 39.8424 30.6838 39.9148 30.8943C39.9873 31.1047 39.9843 31.3339 39.9065 31.5424L36.2111 41.4424C36.1559 41.5903 36.0651 41.7223 35.9468 41.8267C35.8284 41.9311 35.6861 42.0047 35.5325 42.0411C35.3789 42.0774 35.2187 42.0752 35.0661 42.0349C34.9135 41.9945 34.7733 41.9171 34.6577 41.8096L29.9999 37.4782L25.3421 41.8114C25.1642 41.9767 24.9303 42.0685 24.6875 42.0682ZM31.3403 36.103L34.9133 39.4276L37.8311 31.612L36.2141 30.6208L31.3403 36.103ZM22.1687 31.612L25.0853 39.4276L28.6583 36.103L23.7851 30.6208L22.1687 31.612Z" fill="black"/>
<path d="M30.0002 29.1879C27.6074 29.1879 25.37 28.0569 23.7002 26.0043C22.076 24.0093 21.1802 21.3693 21.1802 18.5703C21.1802 18.3157 21.2813 18.0715 21.4614 17.8915C21.6414 17.7114 21.8856 17.6103 22.1402 17.6103C22.3948 17.6103 22.639 17.7114 22.819 17.8915C22.999 18.0715 23.1002 18.3157 23.1002 18.5703C23.1002 23.3661 26.1938 27.2703 29.996 27.2703C33.7982 27.2703 36.896 23.3703 36.896 18.5703V12.9903C36.896 12.7357 36.9971 12.4915 37.1772 12.3115C37.3572 12.1314 37.6014 12.0303 37.856 12.0303C38.1106 12.0303 38.3548 12.1314 38.5348 12.3115C38.7148 12.4915 38.816 12.7357 38.816 12.9903V18.5703C38.816 21.3687 37.9214 24.0093 36.296 26.0043C34.6292 28.0569 32.3912 29.1879 30.0002 29.1879Z" fill="black"/>
<path d="M22.1402 19.5283C21.8856 19.5283 21.6414 19.4272 21.4614 19.2471C21.2813 19.0671 21.1802 18.8229 21.1802 18.5683V12.9883C21.1802 12.7337 21.2813 12.4895 21.4614 12.3095C21.6414 12.1295 21.8856 12.0283 22.1402 12.0283C22.3948 12.0283 22.639 12.1295 22.819 12.3095C22.999 12.4895 23.1002 12.7337 23.1002 12.9883V18.5683C23.1002 18.8229 22.999 19.0671 22.819 19.2471C22.639 19.4272 22.3948 19.5283 22.1402 19.5283ZM23.9636 30.3457C23.709 30.3457 23.4648 30.2446 23.2848 30.0645C23.1047 29.8845 23.0036 29.6403 23.0036 29.3857V24.7603C23.0036 24.5057 23.1047 24.2615 23.2848 24.0815C23.4648 23.9015 23.709 23.8003 23.9636 23.8003C24.2182 23.8003 24.4624 23.9015 24.6424 24.0815C24.8224 24.2615 24.9236 24.5057 24.9236 24.7603V29.3857C24.9236 29.6403 24.8224 29.8845 24.6424 30.0645C24.4624 30.2446 24.2182 30.3457 23.9636 30.3457ZM36.0356 30.3457C35.781 30.3457 35.5368 30.2446 35.3568 30.0645C35.1767 29.8845 35.0756 29.6403 35.0756 29.3857V24.7447C35.0756 24.4901 35.1767 24.2459 35.3568 24.0659C35.5368 23.8859 35.781 23.7847 36.0356 23.7847C36.2902 23.7847 36.5344 23.8859 36.7144 24.0659C36.8944 24.2459 36.9956 24.4901 36.9956 24.7447V29.3857C36.9956 29.6403 36.8944 29.8845 36.7144 30.0645C36.5344 30.2446 36.2902 30.3457 36.0356 30.3457Z" fill="black"/>
<path d="M32.666 19.1349H27.3296C25.7003 19.1319 24.1386 18.4837 22.9861 17.332C21.8336 16.1803 21.1843 14.619 21.1802 12.9897C21.1802 12.7351 21.2813 12.491 21.4614 12.3109C21.6414 12.1309 21.8856 12.0297 22.1402 12.0297C22.3948 12.0297 22.639 12.1309 22.819 12.3109C22.999 12.491 23.1002 12.7351 23.1002 12.9897C23.103 14.1109 23.55 15.1853 24.3433 15.9776C25.1365 16.77 26.2114 17.2158 27.3326 17.2173H32.669C33.7908 17.2169 34.8666 16.7711 35.6599 15.978C36.4533 15.1848 36.8994 14.1092 36.9002 12.9873C36.9002 12.7327 37.0013 12.4886 37.1814 12.3085C37.3614 12.1285 37.6056 12.0273 37.8602 12.0273C38.1148 12.0273 38.359 12.1285 38.539 12.3085C38.719 12.4886 38.8202 12.7327 38.8202 12.9873C38.8187 14.6185 38.1697 16.1823 37.0157 17.3351C35.8617 18.4879 34.2971 19.1353 32.666 19.1349Z" fill="black"/>
<path d="M29.9999 14.9316C23.5799 14.9316 17.0831 13.2324 17.0831 9.98584C17.0831 6.73924 23.5799 5.04004 29.9999 5.04004C36.4199 5.04004 42.9173 6.73864 42.9173 9.98584C42.9173 13.233 36.4163 14.9316 29.9999 14.9316ZM29.9999 6.96004C22.8845 6.96004 19.0031 8.95864 19.0031 9.98584C19.0031 11.013 22.8815 13.0116 29.9999 13.0116C37.1183 13.0116 40.9973 11.0124 40.9973 9.98584C40.9973 8.95924 37.1129 6.96004 29.9999 6.96004ZM15.4097 54.96C15.1551 54.96 14.9109 54.8589 14.7309 54.6789C14.5508 54.4988 14.4497 54.2547 14.4497 54V45.4566C14.4497 45.202 14.5508 44.9579 14.7309 44.7778C14.9109 44.5978 15.1551 44.4966 15.4097 44.4966C15.6643 44.4966 15.9085 44.5978 16.0885 44.7778C16.2686 44.9579 16.3697 45.202 16.3697 45.4566V54C16.3697 54.2547 16.2686 54.4988 16.0885 54.6789C15.9085 54.8589 15.6643 54.96 15.4097 54.96ZM44.5901 54.96C44.3355 54.96 44.0913 54.8589 43.9113 54.6789C43.7312 54.4988 43.6301 54.2547 43.6301 54V45.4566C43.6301 45.202 43.7312 44.9579 43.9113 44.7778C44.0913 44.5978 44.3355 44.4966 44.5901 44.4966C44.8447 44.4966 45.0889 44.5978 45.2689 44.7778C45.449 44.9579 45.5501 45.202 45.5501 45.4566V54C45.5501 54.2547 45.449 54.4988 45.2689 54.6789C45.0889 54.8589 44.8447 54.96 44.5901 54.96Z" fill="black"/>
</svg>
