<svg width="68" height="60" viewBox="0 0 68 60" fill="none" xmlns="http://www.w3.org/2000/svg">
<circle cx="47.9985" cy="20" r="20" fill="#F0A857" fill-opacity="0.631373"/>
<g clip-path="url(#clip0_3410_10393)">
<path d="M57.3333 46.1467L47.9012 26.0073C47.8009 25.7984 47.6223 25.6375 47.404 25.5597C47.1858 25.4819 46.9457 25.4933 46.7358 25.5916C46.526 25.6899 46.3635 25.867 46.2836 26.0845C46.2037 26.302 46.2129 26.5422 46.3092 26.753L55.7412 46.8919C56.1631 47.7941 55.7726 48.8719 54.8707 49.2945L36.7867 57.7634C35.8849 58.1859 34.8074 57.7958 34.3847 56.8939L31.0037 49.6726L39.8037 28.4405C39.9918 27.9851 40.0837 27.4959 40.0736 27.0033C40.0636 26.5108 39.9519 26.0257 39.7455 25.5784L34.932 15.1806L41.1714 17.1545C41.4095 17.23 41.6293 17.3539 41.817 17.5185C42.0048 17.6832 42.1564 17.8849 42.2623 18.111L44.5735 23.044C44.6724 23.255 44.8511 23.4182 45.0703 23.4975C45.2895 23.5769 45.5312 23.5659 45.7423 23.467C45.8469 23.418 45.9407 23.3489 46.0186 23.2637C46.0964 23.1784 46.1567 23.0787 46.1959 22.9701C46.2352 22.8616 46.2527 22.7464 46.2475 22.631C46.2422 22.5157 46.2143 22.4026 46.1653 22.2981L43.8544 17.366C43.6453 16.9197 43.346 16.5216 42.9754 16.1967C42.6048 15.8719 42.1709 15.6273 41.7011 15.4784L34.1764 13.0978C35.7278 10.8317 37.362 7.80129 37.9242 6.4446C39.3987 2.88723 38.2087 0.908864 36.6034 0.24347C34.9981 -0.421691 32.7575 0.134836 31.2831 3.6922C30.649 5.22221 30.0671 8.55434 29.6533 11.4129C29.1502 11.4438 28.6547 11.551 28.1838 11.731L16.7993 16.0807C16.3471 16.2545 15.9348 16.5182 15.5875 16.856C15.2401 17.1937 14.965 17.5984 14.7786 18.0456L2.6022 47.4253C2.23763 48.3049 2.2374 49.2737 2.60162 50.1535C2.96572 51.0332 3.65069 51.7184 4.53018 52.0828L8.09153 53.5588C8.19817 53.603 8.31246 53.6258 8.42789 53.6258C8.54332 53.6258 8.65762 53.6031 8.76428 53.559C8.87093 53.5148 8.96785 53.4501 9.04949 53.3685C9.13113 53.2869 9.1959 53.19 9.24009 53.0834C9.28429 52.9768 9.30705 52.8625 9.30708 52.747C9.30711 52.6316 9.2844 52.5173 9.24025 52.4106C9.1961 52.304 9.13138 52.2071 9.04978 52.1254C8.96818 52.0438 8.87129 51.979 8.76466 51.9348L5.20331 50.4587C4.75765 50.274 4.41042 49.9268 4.22585 49.4809C4.04127 49.035 4.04139 48.5441 4.2262 48.0983L16.403 18.7183C16.4974 18.4916 16.6369 18.2865 16.8129 18.1153C16.9889 17.9442 17.1979 17.8105 17.4271 17.7224L28.8116 13.3726C29.004 13.2992 29.203 13.2442 29.4058 13.2085C29.3143 13.9041 29.2275 14.6004 29.1453 15.2972C28.7675 15.319 28.3974 15.4128 28.0549 15.5737C27.3365 15.91 26.7922 16.506 26.5222 17.2518C26.2521 17.9977 26.2886 18.804 26.625 19.5223C27.1292 20.5993 28.2015 21.2323 29.3189 21.2323C29.7399 21.2323 30.1677 21.1423 30.5736 20.9523C31.292 20.6159 31.8363 20.0198 32.1064 19.2741C32.3764 18.5282 32.34 17.722 32.0037 17.0036C31.7531 16.4688 31.3584 16.0307 30.8653 15.7301C30.9307 15.1704 31.0304 14.3451 31.157 13.3842C31.9178 13.6807 32.5682 14.2586 32.9338 15.0486L38.1501 26.3166C38.2547 26.5432 38.3113 26.7891 38.3164 27.0388C38.3214 27.2884 38.2748 27.5364 38.1795 27.7671L26.0109 57.1273C25.9206 57.3468 25.7877 57.5462 25.6199 57.714C25.4521 57.8818 25.2526 58.0146 25.0331 58.1048C24.8141 58.1962 24.5791 58.2432 24.3418 58.2432C24.1044 58.2431 23.8695 58.196 23.6505 58.1045L12.7755 53.5974C12.5607 53.5108 12.3204 53.5126 12.1068 53.6022C11.8933 53.6919 11.7237 53.8622 11.635 54.0761C11.5463 54.2901 11.5457 54.5304 11.6332 54.7449C11.7207 54.9593 11.8893 55.1306 12.1024 55.2214L22.9774 59.7285C23.4084 59.9077 23.8706 60 24.3374 60.0001C25.7366 60.0001 27.0668 59.1712 27.6348 57.8003L30.0921 51.8717L32.7926 57.6394C33.3981 58.9318 34.6852 59.6916 36.0259 59.6916C36.5315 59.6916 37.045 59.5836 37.5322 59.3552L55.6163 50.8863C57.3955 50.0527 58.1658 47.9268 57.3333 46.1467ZM30.4535 18.6755C30.3997 18.8253 30.3167 18.963 30.2094 19.0805C30.102 19.1981 29.9724 19.2931 29.8281 19.3603C29.2231 19.6436 28.5003 19.3818 28.217 18.7769C28.1491 18.6329 28.1104 18.4769 28.1032 18.3179C28.096 18.1589 28.1204 18 28.175 17.8505C28.2288 17.7007 28.3118 17.5631 28.4191 17.4455C28.5264 17.328 28.656 17.2329 28.8003 17.1658C28.9608 17.0902 29.136 17.051 29.3134 17.0508C29.4525 17.0508 29.5919 17.0751 29.7266 17.1238C29.8764 17.1776 30.014 17.2606 30.1316 17.3679C30.2491 17.4753 30.3442 17.6048 30.4113 17.7492C30.4793 17.8931 30.5181 18.0491 30.5253 18.2081C30.5325 18.3671 30.5081 18.526 30.4535 18.6755ZM32.6682 12.1895C32.2744 11.94 31.8481 11.746 31.4013 11.6128C31.7976 8.86981 32.3413 5.73163 32.9075 4.3651C33.3063 3.40263 34.3993 1.23301 35.9306 1.86735C37.4618 2.50204 36.6995 4.809 36.3005 5.77135C35.76 7.07542 34.1664 10.0225 32.6682 12.1895Z" fill="black"/>
<path d="M18.0942 29.6356C19.9985 28.6221 22.1836 28.4106 24.247 29.0407C27.672 30.0862 29.9708 33.1922 29.9675 36.7694C29.9674 36.8849 29.9901 36.9992 30.0341 37.1059C30.0782 37.2126 30.1429 37.3095 30.2244 37.3912C30.306 37.4729 30.4028 37.5378 30.5094 37.5821C30.616 37.6263 30.7303 37.6492 30.8457 37.6493H30.8466C31.0795 37.6492 31.303 37.5567 31.4678 37.3921C31.6326 37.2274 31.7253 37.0041 31.7256 36.7711C31.7275 34.7071 31.0561 32.647 29.8352 30.9703C28.5723 29.236 26.8174 27.9873 24.7602 27.3592C19.5736 25.776 14.0661 28.7073 12.483 33.8937C11.7161 36.4062 11.9734 39.0668 13.2077 41.3857C14.442 43.7046 16.5052 45.404 19.0175 46.171C19.9487 46.4554 20.9169 46.5999 21.8905 46.5999C23.2747 46.6 24.6432 46.3075 25.9064 45.7417C28.0529 44.78 29.7844 43.0843 30.7819 40.9669C30.8311 40.8624 30.8592 40.7494 30.8647 40.6341C30.8702 40.5188 30.853 40.4035 30.8139 40.2949C30.7749 40.1863 30.7148 40.0864 30.6372 40.001C30.5595 39.9156 30.4658 39.8463 30.3614 39.7971C30.257 39.7479 30.1439 39.7197 30.0286 39.7142C29.9133 39.7087 29.7981 39.726 29.6894 39.765C29.5808 39.8041 29.4809 39.8641 29.3955 39.9418C29.3101 40.0194 29.2408 40.1131 29.1916 40.2176C27.4962 43.8167 23.3433 45.6535 19.5311 44.4895C17.4677 43.8597 15.7733 42.464 14.7596 40.5597C13.7461 38.6554 13.5347 36.4703 14.1647 34.4069C14.7942 32.3437 16.19 30.6492 18.0942 29.6356Z" fill="black"/>
<path d="M25.2694 34.3735C25.1664 34.1787 25.0259 34.0062 24.8558 33.8662C24.6857 33.7261 24.4896 33.6212 24.2787 33.5575L23.8794 33.4356L24.1507 32.5469C24.2157 32.3248 24.1905 32.0861 24.0806 31.8825C23.9708 31.6789 23.785 31.5268 23.5638 31.4592C23.3425 31.3917 23.1035 31.414 22.8986 31.5215C22.6938 31.629 22.5395 31.813 22.4694 32.0334L22.192 32.9424C21.0209 32.7402 19.8514 33.4358 19.4957 34.6014C19.403 34.9021 19.3709 35.2182 19.4012 35.5313C19.4315 35.8445 19.5236 36.1486 19.6722 36.4259C19.8193 36.704 20.02 36.9502 20.2629 37.1503C20.5058 37.3503 20.7859 37.5002 21.087 37.5912L22.1935 37.929C22.2736 37.9532 22.3481 37.993 22.4127 38.0462C22.4773 38.0994 22.5307 38.1649 22.5698 38.2389C22.6093 38.3127 22.6338 38.3936 22.6419 38.4769C22.6499 38.5602 22.6414 38.6442 22.6167 38.7242C22.5925 38.8043 22.5526 38.8788 22.4994 38.9433C22.4462 39.0079 22.3807 39.0613 22.3067 39.1004C22.233 39.1399 22.1521 39.1645 22.0689 39.1725C21.9856 39.1805 21.9015 39.172 21.8216 39.1472L21.2684 38.9784L20.1024 38.6225C20.1476 38.4013 20.1059 38.1712 19.9861 37.9799C19.8662 37.7885 19.6774 37.6507 19.4586 37.5948C19.2399 37.5389 19.008 37.5693 18.8111 37.6797C18.6142 37.7901 18.4673 37.9721 18.4008 38.1878C18.131 39.0721 18.6307 40.0112 19.5151 40.2813L19.9144 40.4032L19.6432 41.2919C19.5786 41.5138 19.604 41.7522 19.714 41.9556C19.8239 42.1589 20.0095 42.3107 20.2305 42.3782C20.4516 42.4457 20.6903 42.4234 20.8951 42.3161C21.0998 42.2089 21.2541 42.0253 21.3245 41.8052L21.6016 40.8972C21.7375 40.9209 21.8742 40.9341 22.0106 40.9341C22.3977 40.9341 22.7815 40.8392 23.1328 40.6522C23.4109 40.5051 23.6571 40.3043 23.8572 40.0615C24.0572 39.8186 24.2071 39.5385 24.2981 39.2374C24.6837 37.9743 23.9699 36.6331 22.7068 36.2475L21.6003 35.9098C21.5202 35.8856 21.4457 35.8457 21.3812 35.7925C21.3166 35.7393 21.2632 35.6738 21.2241 35.5998C21.1846 35.5261 21.1601 35.4452 21.1521 35.3619C21.144 35.2786 21.1526 35.1945 21.1773 35.1146C21.2267 34.9531 21.3382 34.8178 21.4873 34.7384C21.6364 34.6591 21.8109 34.6422 21.9725 34.6914L22.5253 34.8601L22.5256 34.8603H22.5259L23.6915 35.2162C23.6458 35.4376 23.6871 35.6681 23.8069 35.8599C23.9267 36.0516 24.1158 36.1898 24.3349 36.2458C24.5539 36.3017 24.7862 36.2711 24.9832 36.1603C25.1803 36.0495 25.3271 35.867 25.3931 35.6507C25.458 35.4402 25.4804 35.2189 25.4592 34.9997C25.4379 34.7805 25.3734 34.5676 25.2694 34.3735ZM51.5118 46.1007L45.8863 34.1465C45.7851 33.9387 45.6062 33.7791 45.3882 33.7023C45.1703 33.6254 44.9308 33.6375 44.7217 33.7359C44.5126 33.8343 44.3506 34.0111 44.2709 34.228C44.1912 34.445 44.2001 34.6845 44.2957 34.895L49.9212 46.8492C49.9922 47.0002 50.1048 47.1279 50.2458 47.2174C50.3867 47.3068 50.5502 47.3542 50.7171 47.3542C50.8652 47.3541 51.0107 47.3166 51.1404 47.2452C51.2701 47.1738 51.3796 47.0708 51.4589 46.9458C51.5381 46.8208 51.5845 46.6778 51.5938 46.5301C51.603 46.3823 51.5748 46.2346 51.5118 46.1007ZM47.5818 48.2025L41.9563 36.2482C41.857 36.0373 41.678 35.8745 41.4587 35.7955C41.2394 35.7165 40.9976 35.7279 40.7867 35.8272C40.5758 35.9264 40.4129 36.1054 40.334 36.3247C40.255 36.5441 40.2664 36.7858 40.3657 36.9967L45.9912 48.951C46.0622 49.102 46.1748 49.2297 46.3157 49.3192C46.4567 49.4086 46.6202 49.456 46.7871 49.4559C46.9351 49.4558 47.0807 49.4183 47.2104 49.347C47.3401 49.2756 47.4496 49.1726 47.5289 49.0476C47.6081 48.9226 47.6545 48.7796 47.6638 48.6318C47.673 48.4841 47.6448 48.3364 47.5818 48.2025Z" fill="black"/>
</g>
<defs>
<clipPath id="clip0_3410_10393">
<rect width="60" height="60" fill="white" transform="translate(-0.00146484)"/>
</clipPath>
</defs>
</svg>
