<svg width="84" height="84" viewBox="0 0 84 84" fill="none" xmlns="http://www.w3.org/2000/svg">
<path fill-rule="evenodd" clip-rule="evenodd" d="M83.1828 41.7328C83.1828 64.5957 64.6489 83.1296 41.786 83.1296C18.9231 83.1296 0.38916 64.5957 0.38916 41.7328C0.38916 18.8699 18.9231 0.335938 41.786 0.335938C64.6489 0.335938 83.1828 18.8699 83.1828 41.7328ZM36.9975 63.6523L67.7112 32.9385C68.7542 31.8955 68.7542 30.2045 67.7112 29.1615L63.9343 25.3846C62.8913 24.3415 61.2002 24.3415 60.1572 25.3846L35.1089 50.4327L23.4145 38.7382C22.3715 37.6953 20.6804 37.6953 19.6373 38.7382L15.8604 42.5152C14.8174 43.5581 14.8174 45.2492 15.8604 46.2921L33.2203 63.6521C34.2634 64.6952 35.9544 64.6952 36.9975 63.6523Z" fill="#FFB400"/>
</svg>
